<?xml version="1.0" standalone="no"?>
<!DOCTYPE svg PUBLIC "-//W3C//DTD SVG 20010904//EN"
 "http://www.w3.org/TR/2001/REC-SVG-20010904/DTD/svg10.dtd">
<svg version="1.0" xmlns="http://www.w3.org/2000/svg"
 width="450.000000pt" height="450.000000pt" viewBox="0 0 450.000000 450.000000"
 preserveAspectRatio="xMidYMid meet">
<metadata>
Created by potrace 1.11, written by Peter Selinger 2001-2013
</metadata>
<g transform="translate(0.000000,450.000000) scale(0.100000,-0.100000)"
fill="#000000" stroke="none">
<path d="M0 2250 l0 -2250 2250 0 2250 0 0 2250 0 2250 -2250 0 -2250 0 0
-2250z m1088 1656 c-10 -5 -21 -18 -24 -30 -7 -20 -7 -20 -15 2 -5 12 -18 26
-30 30 -20 8 -20 8 5 20 14 6 26 19 26 28 0 12 7 9 28 -12 24 -26 25 -30 10
-38z m-274 -204 c16 -32 44 -48 101 -61 42 -9 39 -11 -33 -30 -48 -13 -70 -40
-87 -109 l-12 -46 -12 52 c-15 62 -53 99 -112 108 -50 8 -50 20 0 28 50 8 98
48 106 89 14 69 18 74 27 34 4 -21 14 -50 22 -65z m1449 -159 c4 -3 1 -13 -6
-21 -10 -13 -9 -14 1 -8 16 10 44 -23 37 -42 -3 -7 -1 -10 5 -7 12 8 41 -50
34 -68 -3 -8 -1 -18 5 -22 7 -4 9 1 5 12 -3 10 22 -34 56 -97 69 -131 129
-286 166 -432 53 -208 58 -251 59 -500 l1 -238 42 -43 c23 -24 39 -47 35 -51
-5 -4 -1 -6 7 -4 9 2 14 -3 12 -12 -2 -8 0 -12 4 -7 10 9 65 -43 58 -55 -3 -5
-1 -7 4 -6 16 5 70 -58 77 -91 6 -29 -34 -147 -120 -356 -13 -32 -35 -89 -55
-142 -7 -18 -16 -30 -21 -27 -5 3 -6 -1 -3 -9 3 -8 -3 -35 -14 -61 l-18 -48
-13 41 c-6 23 -9 47 -5 53 4 7 3 8 -4 4 -11 -7 -16 12 -16 66 0 9 -2 15 -6 13
-3 -2 -23 61 -45 141 -21 79 -40 144 -42 144 -14 0 -47 -112 -58 -198 -18
-130 -36 -203 -81 -314 -33 -84 -104 -218 -114 -218 -8 0 -71 117 -102 188
-45 104 -77 220 -92 337 -12 93 -48 217 -60 204 -2 -2 -24 -80 -50 -174 -25
-93 -53 -196 -63 -228 l-17 -58 -48 122 c-26 67 -45 126 -42 130 3 5 1 9 -4 9
-11 0 -142 339 -142 369 0 22 34 64 156 188 39 40 75 69 79 65 5 -4 5 -2 1 5
-3 6 -2 14 3 18 6 3 8 75 4 183 -8 259 19 447 102 698 46 142 161 388 176 379
5 -4 7 0 4 7 -5 14 81 168 94 168 4 0 11 -3 14 -7z m-1246 -74 c6 -6 26 -15
45 -19 l33 -8 -32 -7 c-37 -8 -56 -27 -71 -70 -8 -22 -11 -25 -11 -10 -1 30
-28 64 -64 79 -28 13 -29 14 -9 15 30 1 72 43 73 73 0 19 2 18 12 -9 7 -18 17
-37 24 -44z"/>
<path d="M2223 3475 c-3 -9 -3 -18 -1 -21 3 -3 8 4 11 16 6 23 -1 27 -10 5z"/>
<path d="M2246 3472 c-3 -5 1 -9 9 -9 8 0 12 4 9 9 -3 4 -7 8 -9 8 -2 0 -6 -4
-9 -8z"/>
<path d="M2187 3427 c-15 -28 -16 -29 -1 -9 16 21 17 21 31 5 13 -16 13 -15 2
7 -6 14 -12 26 -13 27 -1 1 -10 -12 -19 -30z"/>
<path d="M2274 3369 c-3 -6 -1 -16 5 -22 8 -8 11 -5 11 11 0 24 -5 28 -16 11z"/>
<path d="M2344 3328 c1 -34 2 -34 17 -7 6 13 7 19 1 15 -6 -3 -12 0 -15 6 -2
7 -4 1 -3 -14z"/>
<path d="M2278 3183 c7 -3 16 -2 19 1 4 3 -2 6 -13 5 -11 0 -14 -3 -6 -6z"/>
<path d="M2149 2831 c-95 -60 -114 -186 -42 -272 33 -38 95 -69 143 -69 80 0
159 63 181 142 42 159 -142 288 -282 199z"/>
<path d="M2250 2119 c0 -5 -4 -8 -9 -5 -5 3 -15 -2 -22 -11 -12 -15 -12 -16 1
-8 20 13 52 17 46 7 -3 -5 1 -9 9 -9 13 0 12 4 -2 19 -19 21 -23 22 -23 7z"/>
<path d="M1881 2064 c0 -11 3 -14 6 -6 3 7 2 16 -1 19 -3 4 -6 -2 -5 -13z"/>
<path d="M2640 2071 c0 -6 4 -13 10 -16 6 -3 7 1 4 9 -7 18 -14 21 -14 7z"/>
<path d="M2620 2028 c0 -9 5 -20 10 -23 13 -8 13 5 0 25 -8 13 -10 13 -10 -2z"/>
<path d="M2183 2014 c-3 -8 -1 -20 6 -27 8 -8 11 -4 9 16 -3 31 -6 34 -15 11z"/>
<path d="M2305 2010 c-3 -5 -1 -10 4 -10 6 0 11 5 11 10 0 6 -2 10 -4 10 -3 0
-8 -4 -11 -10z"/>
<path d="M1780 1990 c-9 -6 -10 -10 -3 -10 6 0 15 5 18 10 8 12 4 12 -15 0z"/>
<path d="M1877 1983 c-4 -3 -7 -11 -7 -17 0 -6 5 -5 12 2 6 6 9 14 7 17 -3 3
-9 2 -12 -2z"/>
<path d="M2172 1960 c0 -14 2 -19 5 -12 2 6 2 18 0 25 -3 6 -5 1 -5 -13z"/>
<path d="M2212 1960 c0 -14 2 -19 5 -12 2 6 2 18 0 25 -3 6 -5 1 -5 -13z"/>
<path d="M2736 1959 c21 -23 23 -23 20 -2 -2 9 -11 17 -20 19 -17 2 -17 2 0
-17z"/>
<path d="M2594 1952 c2 -21 21 -19 23 3 l3 20 -9 -20 c-6 -16 -9 -17 -13 -5
-3 8 -4 9 -4 2z"/>
<path d="M1724 1939 c-5 -8 -3 -9 6 -4 7 4 16 2 22 -6 8 -12 9 -12 6 0 -6 20
-24 25 -34 10z"/>
<path d="M2322 1920 c0 -19 2 -27 5 -17 2 9 2 25 0 35 -3 9 -5 1 -5 -18z"/>
<path d="M1669 1893 c0 -5 -2 -16 -4 -26 -2 -11 0 -16 3 -12 4 4 7 10 7 13 0
4 4 13 8 20 5 7 4 12 -2 12 -6 0 -11 -3 -12 -7z"/>
<path d="M2566 1865 c-4 -14 -3 -33 2 -42 7 -11 9 -4 9 26 0 47 -2 51 -11 16z"/>
<path d="M2816 1882 c-7 -12 22 -38 31 -28 4 3 0 14 -9 22 -9 10 -18 12 -22 6z"/>
<path d="M2202 1855 c0 -16 2 -22 5 -12 2 9 2 23 0 30 -3 6 -5 -1 -5 -18z"/>
<path d="M2851 1824 c0 -11 3 -14 6 -6 3 7 2 16 -1 19 -3 4 -6 -2 -5 -13z"/>
<path d="M2321 1814 c0 -11 3 -14 6 -6 3 7 2 16 -1 19 -3 4 -6 -2 -5 -13z"/>
<path d="M2827 1814 c-4 -4 -7 -14 -7 -23 0 -11 3 -12 11 -4 6 6 10 16 7 23
-2 6 -7 8 -11 4z"/>
<path d="M1665 1790 c3 -5 8 -10 11 -10 2 0 4 5 4 10 0 6 -5 10 -11 10 -5 0
-7 -4 -4 -10z"/>
<path d="M2541 1774 c0 -11 3 -14 6 -6 3 7 2 16 -1 19 -3 4 -6 -2 -5 -13z"/>
<path d="M2172 1750 c0 -19 2 -27 5 -17 2 9 2 25 0 35 -3 9 -5 1 -5 -18z"/>
<path d="M2323 1745 c0 -22 2 -30 4 -17 2 12 2 30 0 40 -3 9 -5 -1 -4 -23z"/>
<path d="M1966 1730 c3 -14 11 -32 16 -40 6 -10 7 -7 2 10 -3 14 -11 32 -16
40 -6 10 -7 7 -2 -10z"/>
<path d="M1946 1705 c-8 -22 -8 -22 9 -22 17 0 18 6 6 25 -7 11 -10 10 -15 -3z"/>
<path d="M2516 1703 c-6 -14 -5 -15 5 -6 7 7 10 15 7 18 -3 3 -9 -2 -12 -12z"/>
<path d="M2182 1650 c0 -14 2 -19 5 -12 2 6 2 18 0 25 -3 6 -5 1 -5 -13z"/>
<path d="M2301 1593 c0 -31 1 -54 3 -52 9 10 16 109 8 109 -5 0 -10 -25 -11
-57z"/>
<path d="M1727 1599 c4 -13 8 -18 11 -10 2 7 -1 18 -6 23 -8 8 -9 4 -5 -13z"/>
<path d="M2181 1615 c1 -19 18 -51 18 -35 0 8 -4 22 -9 30 -5 8 -9 11 -9 5z"/>
<path d="M1941 1564 c0 -11 3 -14 6 -6 3 7 2 16 -1 19 -3 4 -6 -2 -5 -13z"/>
<path d="M1797 1454 c-4 -4 -7 -14 -7 -23 1 -13 3 -12 11 3 9 15 13 16 21 5 8
-12 9 -12 6 0 -5 17 -21 25 -31 15z"/>
<path d="M2692 1440 c-7 -11 -12 -25 -12 -32 1 -7 8 0 16 15 18 33 14 46 -4
17z"/>
<path d="M1881 1434 c0 -11 3 -14 6 -6 3 7 2 16 -1 19 -3 4 -6 -2 -5 -13z"/>
<path d="M1826 1395 c-9 -26 -7 -32 5 -12 6 10 9 21 6 23 -2 3 -7 -2 -11 -11z"/>
<path d="M2657 1391 c-4 -17 -3 -21 5 -13 5 5 8 16 6 23 -3 8 -7 3 -11 -10z"/>
<path d="M1858 1354 c2 -13 8 -21 13 -18 14 8 11 31 -4 37 -10 4 -13 -2 -9
-19z"/>
<path d="M1866 1305 c-9 -26 -7 -32 5 -12 6 10 9 21 6 23 -2 3 -7 -2 -11 -11z"/>
</g>
</svg>
